<?xml version="1.0" encoding="utf-8"?>
<!-- Generator: Adobe Illustrator 22.0.1, SVG Export Plug-In . SVG Version: 6.00 Build 0)  -->
<svg version="1.1" id="Layer_1" xmlns="http://www.w3.org/2000/svg" xmlns:xlink="http://www.w3.org/1999/xlink" x="0px" y="0px"
	 viewBox="0 0 285.4 61.2" style="enable-background:new 0 0 285.4 61.2;" xml:space="preserve">
<style type="text/css">
	.st0{fill:#FFFFFF;}
</style>
<path class="st0" d="M35.6,44.3c0,9-7.2,16.2-16.2,16.2H0V1.4h16.1c8.7,0,15.8,7.1,15.8,15.8c0,5-2.3,9.4-5.9,12.3
	C31.7,31.9,35.6,37.6,35.6,44.3z"/>
<path class="st0" d="M152.2,1.4v59.1h-45.9V0.4L144,47.6V1.4H152.2z"/>
<path class="st0" d="M209.5,34.2h-23.4l21.2-26.5c-5.1-4.3-11.6-6.9-18.7-6.9C172.3,0.8,159,14.3,159,31s13.3,30.2,29.6,30.2
	c8.2,0,15.6-3.4,21-8.9v8.9h8.4v-27C218,34.2,209.5,34.2,209.5,34.2z"/>
<path class="st0" d="M69.7,0C53.3,0,40.1,13.4,40.1,30.1s13.3,30.2,29.6,30.2c16.2,0,29.5-13.5,29.5-30.2S86,0,69.7,0z M73.8,43.6
	h-8.4V16.8h8.4V43.6z"/>
<path class="st0" d="M255.8,0c-16.3,0-29.6,13.4-29.6,30.1s13.3,30.2,29.6,30.2c16.3,0,29.6-13.5,29.5-30.2
	C285.3,13.4,272.1,0,255.8,0z M260,43.6h-8.4V16.8h8.4V43.6z"/>
</svg>
